<svg xmlns="http://www.w3.org/2000/svg" viewBox="0 0 64 64" role="img" aria-label="Syra">
  <defs>
    <linearGradient id="g" x1="0" x2="1" y1="0" y2="1">
      <stop offset="0%" stop-color="#925f77" />
      <stop offset="100%" stop-color="#d9b7a0" />
    </linearGradient>
  </defs>
  <rect width="64" height="64" rx="18" fill="url(#g)" />
  <path d="M42.9 20.4c-2.7-2.5-6.2-3.8-10.6-3.8-6.2 0-11 2.2-14.6 6.7l4.7 3.7c2.5-3 5.8-4.5 9.8-4.5 2.1 0 3.7.4 4.8 1.1 1.1.8 1.6 1.8 1.6 3.1 0 1.1-.4 2-1.2 2.8-.8.8-2.4 1.5-4.7 2.1-3.9 1-6.7 2.3-8.3 4-1.6 1.6-2.4 3.7-2.4 6.3 0 2.6 1 4.8 2.9 6.4 1.9 1.6 4.6 2.4 8 2.4 5.3 0 9.5-1.9 12.5-5.8l-4.9-3.6c-2.1 2.7-4.7 4-7.7 4-1.7 0-3-.3-4-.9-.9-.6-1.4-1.5-1.4-2.6 0-.9.4-1.7 1.1-2.4.8-.7 2.4-1.4 4.9-2 3.8-1 6.5-2.4 8.1-4.1 1.6-1.7 2.3-3.8 2.3-6.3 0-3-1.3-5.5-4-8Z" fill="#fff" />
</svg>

